<?xml version="1.0" encoding="UTF-8" standalone="no"?>
<svg
   xmlns:dc="http://purl.org/dc/elements/1.1/"
   xmlns:cc="http://creativecommons.org/ns#"
   xmlns:rdf="http://www.w3.org/1999/02/22-rdf-syntax-ns#"
   xmlns:svg="http://www.w3.org/2000/svg"
   xmlns="http://www.w3.org/2000/svg"
   xmlns:sodipodi="http://sodipodi.sourceforge.net/DTD/sodipodi-0.dtd"
   xmlns:inkscape="http://www.inkscape.org/namespaces/inkscape"
   sodipodi:docname="favicon.svg"
   inkscape:version="1.0 (4035a4fb49, 2020-05-01)"
   inkscape:export-ydpi="96"
   inkscape:export-xdpi="96"
   inkscape:export-filename="C:\Users\Денис\Documents\favicon.png"
   id="svg536"
   version="1.1"
   viewBox="0 0 39.170975 37.337589"
   height="37.337589mm"
   width="39.170975mm">
  <defs
     id="defs530">
    <clipPath
       clipPathUnits="userSpaceOnUse"
       id="clipPath28">
      <path
         d="M 0,500 H 500 V 0 H 0 Z"
         id="path26" />
    </clipPath>
  </defs>
  <sodipodi:namedview
     inkscape:window-maximized="0"
     inkscape:window-y="0"
     inkscape:window-x="0"
     inkscape:window-height="728"
     inkscape:window-width="1362"
     fit-margin-bottom="0"
     fit-margin-right="0"
     fit-margin-left="0"
     fit-margin-top="0"
     showgrid="false"
     inkscape:document-rotation="0"
     inkscape:current-layer="layer1"
     inkscape:document-units="mm"
     inkscape:cy="-172.29792"
     inkscape:cx="-424.54754"
     inkscape:zoom="0.35"
     inkscape:pageshadow="2"
     inkscape:pageopacity="0.0"
     borderopacity="1.0"
     bordercolor="#666666"
     pagecolor="#ffffff"
     id="base" />
  <metadata
     id="metadata533">
    <rdf:RDF>
      <cc:Work
         rdf:about="">
        <dc:format>image/svg+xml</dc:format>
        <dc:type
           rdf:resource="http://purl.org/dc/dcmitype/StillImage" />
        <dc:title></dc:title>
      </cc:Work>
    </rdf:RDF>
  </metadata>
  <g
     transform="translate(-69.616893,-193.75383)"
     id="layer1"
     inkscape:groupmode="layer"
     inkscape:label="Слой 1">
    <g
       transform="matrix(0.35277777,0,0,-0.35277777,53.870811,363.58827)"
       id="g22">
      <g
         id="g24"
         clip-path="url(#clipPath28)">
        <g
           id="g30"
           transform="translate(140.3716,412.2563)">
          <path
             d="m 0,0 c 0,0 -17.213,2.504 -36.929,-12.831 0,0 10.137,46.719 -3.06,81.721 C -40.998,71.567 -3.756,55.081 0,0"
             style="fill:#4ab7e2;fill-opacity:1;fill-rule:nonzero;stroke:none"
             id="path32" />
        </g>
        <g
           id="g34"
           transform="translate(101.5904,452.1378)">
          <path
             d="m 0,0 c 1.18,-14.158 0.621,-32.585 -4.407,-54.904 0,0 -16.338,-12.624 -34.113,-6.885 C -17.414,-44.888 -1.831,21.973 0,0"
             style="fill:#4ab7e2;fill-opacity:1;fill-rule:nonzero;stroke:none"
             id="path36" />
        </g>
        <g
           id="g38"
           transform="translate(154.0448,392.457)">
          <path
             d="m 0,0 c 0,0 -0.174,0.591 -0.624,1.664 -0.47,1.044 -1.187,2.602 -2.458,4.007 -1.245,1.452 -3.007,2.386 -5.042,2.427 -2.082,0.031 -4.76,-0.703 -7.724,-2.184 -3.08,-1.515 -6.621,-3.506 -10.37,-5.611 -3.779,-2.083 -7.818,-4.356 -12.211,-6.414 -4.383,-2.075 -9.105,-3.968 -14.091,-5.561 -4.971,-1.627 -10.176,-3.014 -15.556,-4.061 -5.377,-1.005 -11.044,-1.551 -16.771,-0.775 -2.854,0.405 -5.703,1.145 -8.37,2.327 -2.653,1.198 -5.109,2.806 -7.157,4.709 -2.069,1.9 -3.75,4.005 -5.123,6.235 -1.339,2.158 -2.444,4.56 -3.124,6.991 -1.395,4.906 -0.87,10.071 1.018,14.009 1.847,3.988 4.77,6.805 7.683,8.582 2.931,1.78 5.989,2.532 8.525,2.288 2.564,-0.207 4.362,-1.472 5.222,-2.465 0.45,-0.498 0.725,-0.925 0.899,-1.214 0.166,-0.293 0.252,-0.445 0.252,-0.445 0.176,-0.311 0.066,-0.707 -0.246,-0.883 -0.283,-0.16 -0.634,-0.084 -0.829,0.164 l -0.035,0.045 c 0,0 -0.09,0.114 -0.265,0.337 -0.179,0.215 -0.457,0.527 -0.867,0.861 -0.803,0.671 -2.235,1.382 -4.188,1.248 -1.933,-0.118 -4.303,-1.034 -6.479,-2.804 -2.17,-1.756 -4.146,-4.375 -5.152,-7.521 -1.024,-3.142 -0.912,-6.762 0.53,-10.181 0.728,-1.721 1.69,-3.369 2.974,-4.994 1.22,-1.573 2.672,-3.032 4.27,-4.206 3.209,-2.367 7.108,-3.632 11.396,-3.853 4.292,-0.203 8.889,0.551 13.428,1.861 4.558,1.285 9.029,3.23 13.393,5.298 4.355,2.104 8.645,4.282 12.925,6.263 4.271,1.998 8.544,3.777 12.713,5.398 4.202,1.582 8.233,3.007 12.406,3.943 4.242,0.986 8.805,1.232 12.79,-0.302 1.974,-0.759 3.653,-1.994 4.826,-3.337 C -0.254,10.486 0.425,9.06 0.872,7.805 1.702,5.254 1.671,3.299 1.582,1.999 1.489,0.706 1.298,0.015 1.298,0.015 1.201,-0.345 0.831,-0.558 0.471,-0.461 0.238,-0.398 0.065,-0.215 0,0"
             style="fill:#0071bc;fill-opacity:1;fill-rule:nonzero;stroke:none"
             id="path40" />
        </g>
        <g
           id="g42"
           transform="translate(150.1344,390.6231)">
          <path
             d="M 0,0 C 0,0 -0.468,0.606 -1.427,1.322 -1.908,1.663 -2.505,2.014 -3.185,2.211 -3.862,2.427 -4.616,2.422 -5.421,2.274 -6.224,2.111 -7.11,1.789 -8.044,1.255 c -1.031,-0.594 -2.118,-1.221 -3.243,-1.869 -2.362,-1.287 -5.07,-2.53 -7.717,-3.861 -1.326,-0.667 -2.668,-1.314 -3.995,-1.937 -1.334,-0.615 -2.668,-1.177 -3.974,-1.689 -1.312,-0.496 -2.573,-0.991 -3.811,-1.353 -1.22,-0.404 -2.408,-0.691 -3.49,-0.976 -1.099,-0.235 -2.098,-0.466 -2.998,-0.603 -0.903,-0.123 -1.679,-0.267 -2.332,-0.302 -1.297,-0.084 -2.038,-0.132 -2.038,-0.132 -0.119,-0.008 -0.222,0.083 -0.23,0.202 -0.007,0.107 0.065,0.201 0.166,0.225 l 0.016,0.003 c 0,0 0.711,0.166 1.956,0.457 0.619,0.143 1.355,0.398 2.204,0.633 0.845,0.254 1.779,0.615 2.795,0.987 2.019,0.806 4.305,1.893 6.695,3.167 1.194,0.641 2.403,1.353 3.638,2.062 1.225,0.732 2.463,1.488 3.692,2.268 1.215,0.804 2.439,1.602 3.622,2.436 1.187,0.834 2.372,1.63 3.589,2.343 0.629,0.33 1.258,0.717 1.858,0.975 0.3,0.14 0.597,0.279 0.891,0.416 0.342,0.165 0.704,0.266 1.047,0.396 0.669,0.269 1.407,0.42 2.099,0.57 0.731,0.071 1.426,0.159 2.135,0.068 1.391,-0.098 2.664,-0.63 3.531,-1.324 0.875,-0.7 1.396,-1.473 1.723,-2.123 C 0.118,1.644 0.251,1.097 0.325,0.728 0.395,0.358 0.405,0.154 0.405,0.154 0.413,0.029 0.319,-0.079 0.194,-0.087 0.119,-0.093 0.045,-0.055 0,0"
             style="fill:#29abe2;fill-opacity:1;fill-rule:nonzero;stroke:none"
             id="path44" />
        </g>
        <g
           id="g46"
           transform="translate(63.5104,414.2231)">
          <path
             d="M 0,0 C 0,0 -0.282,-0.194 -0.777,-0.534 -1.255,-0.866 -1.923,-1.305 -2.636,-1.856 -3.004,-2.114 -3.357,-2.433 -3.734,-2.738 -4.09,-3.066 -4.476,-3.384 -4.828,-3.742 -5.011,-3.915 -5.192,-4.095 -5.401,-4.259 l -0.532,-0.586 c -0.398,-0.379 -0.624,-0.894 -0.92,-1.376 -0.156,-0.544 -0.457,-1.055 -0.52,-1.638 -0.072,-0.575 -0.272,-1.135 -0.243,-1.715 -0.005,-0.572 -0.068,-1.135 -0.028,-1.672 0.049,-0.542 0.096,-1.054 0.139,-1.526 0.076,-0.958 0.34,-1.727 0.417,-2.292 0.11,-0.562 0.172,-0.882 0.172,-0.882 l 0.003,-0.015 c 0.015,-0.078 -0.036,-0.154 -0.114,-0.169 -0.066,-0.013 -0.131,0.022 -0.158,0.08 0,0 -0.14,0.298 -0.385,0.819 -0.226,0.53 -0.638,1.263 -0.935,2.222 -0.151,0.484 -0.315,1.009 -0.487,1.563 -0.169,0.561 -0.207,1.189 -0.32,1.83 -0.141,0.64 -0.062,1.333 -0.06,2.034 -0.018,0.706 0.227,1.414 0.345,2.139 0.1,0.355 0.257,0.695 0.376,1.051 0.121,0.357 0.255,0.708 0.454,1.026 0.185,0.325 0.36,0.661 0.565,0.969 0.227,0.288 0.477,0.555 0.718,0.821 0.506,0.503 1.087,0.886 1.649,1.184 0.569,0.294 1.13,0.505 1.662,0.633 0.516,0.168 1.026,0.191 1.452,0.249 0.443,0.013 0.816,0.026 1.134,-0.017 C -0.391,0.419 -0.039,0.286 -0.039,0.286 0.045,0.257 0.09,0.165 0.061,0.081 0.05,0.049 0.026,0.019 0,0"
             style="fill:#29abe2;fill-opacity:1;fill-rule:nonzero;stroke:none"
             id="path48" />
        </g>
      </g>
    </g>
  </g>
</svg>
